HIERARCHY
ROOT Hips
{
	OFFSET 0.000000 0.000000 0.000000 
	CHANNELS 6 Xposition Yposition Zposition Yrotation Zrotation Xrotation 
	JOINT Lumbar
	{
		OFFSET 0.000000 0.000000 0.000000 
		CHANNELS 3 Zrotation Xrotation Yrotation
		JOINT Neck
		{
			OFFSET 0.000000 0.445665 0.000000 
			CHANNELS 3 Zrotation Xrotation Yrotation
			End Site
			{
				OFFSET 0.000000 0.227535 0.000000 
			}
		}
		JOINT RightShoulder
		{
			OFFSET 0.019635 0.377685 0.194865 
			CHANNELS 3 Zrotation Xrotation Yrotation
			JOINT RightElbow
			{
				OFFSET 0.000000 -0.243375 0.000000 
				CHANNELS 2 Zrotation Yrotation
				JOINT RightWrist
				{
					OFFSET 0.000000 -0.264825 0.000000 
					CHANNELS 2 Zrotation Xrotation
					End Site
					{
						OFFSET 0.006600 -0.176220 0.000990 
					}
				}
			}
		}
		JOINT LeftShoulder
		{
			OFFSET 0.019635 0.377685 -0.194865 
			CHANNELS 3 Zrotation Xrotation Yrotation
			JOINT LeftElbow
			{
				OFFSET 0.000000 -0.243375 0.000000 
				CHANNELS 2 Zrotation Yrotation
				JOINT LeftWrist
				{
					OFFSET 0.000000 -0.264825 0.000000 
					CHANNELS 2 Zrotation Xrotation
					End Site
					{
						OFFSET 0.006600 -0.176220 -0.000990 
					}
				}
			}
		}
	}
	JOINT RightHip
	{
		OFFSET 0.052140 -0.069960 0.075570 
		CHANNELS 3 Zrotation Xrotation Yrotation
		JOINT RightKnee
		{
			OFFSET 0.000000 -0.402270 0.000000 
			CHANNELS 1 Zrotation
			JOINT RightAnkle
			{
				OFFSET 0.000000 -0.404085 0.000000 
				CHANNELS 3 Zrotation Xrotation Yrotation
				End Site
				{
					OFFSET 0.204105 -0.089430 0.008415 
				}
			}
		}
	}
	JOINT LeftHip
	{
		OFFSET 0.052140 -0.069960 -0.075570 
		CHANNELS 3 Zrotation Xrotation Yrotation
		JOINT LeftKnee
		{
			OFFSET 0.000000 -0.402270 0.000000 
			CHANNELS 1 Zrotation
			JOINT LeftAnkle
			{
				OFFSET 0.000000 -0.404085 0.000000 
				CHANNELS 3 Zrotation Xrotation Yrotation
				End Site
				{
					OFFSET 0.204105 -0.089430 -0.008415 
				}
			}
		}
	}
}
MOTION
Frames: 14
Frame Time: 0.02
-1.52439 0.93913 -0.4397 152.95676 0 -5.43604 -5.27242 7.3763 -7.09102 -58.34001 10.93794 15.56767 52.99338 -41.7356 4.62084 91.61952 39.90954 13.1257 -13.89727 63.4857 -2.90388 -18.47367 13.96975 -82.42236 -3.52293 7.05913 7.8444 2.22403 19.14889 -12.75786 -16.30851 -1.77615 -10.12983 -7.90632 6.08598 17.3357 -5.974 -1.88879 4.20912 9.8239
-1.52378 0.93859 -0.44228 152.6395 0 -5.39782 -5.48221 7.42692 -6.873 -58.52935 11.09713 16.18523 53.97898 -42.53206 5.65284 90.60776 41.20144 13.58493 -13.40424 63.17186 -3.31668 -18.13261 13.77967 -82.31075 -3.4463 6.91637 8.5764 2.65503 19.09205 -14.1927 -15.9357 -1.82011 -10.34929 -8.23163 6.08703 17.62818 -5.50325 -2.01603 4.16827 9.70374
-1.52303 0.93792 -0.44539 152.2587 0 -5.34473 -5.75517 7.47196 -6.65214 -58.65817 11.30707 16.91976 55.29958 -43.48456 7.07847 89.24628 42.57311 14.19166 -12.80781 62.67841 -3.80856 -17.85336 13.56897 -82.17042 -3.3538 6.75248 9.45406 3.16675 18.94174 -15.90484 -15.50174 -1.87343 -10.61576 -8.58898 6.08614 17.97473 -5.00372 -2.14779 4.12821 9.58343
-1.52237 0.93732 -0.44833 151.91544 0 -5.30211 -5.99806 7.52701 -6.44188 -58.83121 11.51239 17.62452 56.59473 -44.38086 8.48188 87.94294 44.07537 14.61939 -12.23254 62.26557 -4.28674 -17.59169 13.36265 -82.03308 -3.27288 6.59071 10.24587 3.64032 18.7762 -17.45441 -15.10553 -1.91976 -10.87238 -8.93074 6.09357 18.29598 -4.52302 -2.27599 4.0875 9.46038
-1.52158 0.93669 -0.45099 151.53174 0 -5.24383 -6.2462 7.54793 -6.18929 -58.93505 11.64359 18.23719 57.37647 -45.22217 9.24765 87.05417 44.92633 15.50339 -11.75879 61.85431 -4.68046 -17.11921 13.16995 -81.93525 -3.17271 6.45969 11.126 4.12251 18.84565 -19.16652 -14.66692 -1.97709 -11.08466 -9.28078 6.06849 18.62411 -4.01177 -2.41205 4.04746 9.34812
-1.52104 0.93609 -0.45435 151.22251 0 -5.21469 -6.49923 7.64196 -6.02716 -59.16507 11.93838 19.06507 59.27755 -46.21174 11.40391 85.22716 47.10527 15.49025 -11.05499 61.3965 -5.26082 -17.12463 12.95116 -81.75049 -3.10922 6.25886 11.85104 4.60372 18.41373 -20.59802 -14.3018 -2.01433 -11.39562 -9.61624 6.11254 18.94591 -3.56519 -2.53105 4.00672 9.21409
-1.52115 0.9356 -0.4595 151.08779 0 -5.26832 -6.74238 7.91 -6.0933 -59.79678 12.68995 20.48022 64.44457 -47.58141 17.57293 80.84772 53.2717 12.8175 -9.70358 60.87543 -6.39251 -18.21377 12.61152 -81.32055 -3.15014 5.88432 12.15778 5.07766 16.53147 -21.24576 -14.15995 -1.9891 -12.00728 -9.94456 6.3294 19.2768 -3.23828 -2.61719 3.96037 9.01687
-1.52151 0.93516 -0.46533 151.03918 0 -5.35167 -6.98958 8.25698 -6.25479 -60.55121 13.60084 22.10246 70.67509 -49.0934 25.07546 75.54902 60.70803 9.26515 -8.1321 60.3112 -7.69857 -19.81636 12.25635 -80.80722 -3.2287 5.43865 12.29509 5.54465 14.16291 -21.59061 -14.09333 -1.94419 -12.70934 -10.24862 6.61878 19.59079 -2.99073 -2.68358 3.914 8.79909
-1.52178 0.93472 -0.47086 150.98128 0 -5.42271 -7.24023 8.58733 -6.38741 -61.22389 14.42701 23.61602 76.25531 -50.53211 31.79371 70.69899 67.33327 6.21096 -6.68628 59.7524 -8.88763 -21.33651 11.94447 -80.33958 -3.29073 5.01581 12.4794 6.005 12.07734 -22.03445 -13.98874 -1.91145 -13.34359 -10.53798 6.88767 19.88796 -2.74882 -2.74835 3.86995 8.59206
-1.52196 0.93418 -0.47637 150.79386 0 -5.48962 -7.47127 8.83739 -6.45913 -62.00196 15.30698 25.19839 82.56768 -52.00825 39.28714 65.69308 74.93793 2.74368 -5.12735 59.24386 -10.23805 -22.24789 11.48052 -79.83567 -3.35007 4.62933 12.79392 6.5104 9.73345 -22.64922 -13.89768 -1.86557 -14.09139 -10.94046 7.10594 20.29549 -2.32578 -2.85616 3.8161 8.37639
-1.52237 0.93387 -0.48208 150.89914 0 -5.57055 -7.74264 9.27206 -6.68003 -62.59313 16.11205 26.68115 87.58384 -53.44373 45.46638 60.81453 80.81759 -0.07063 -3.75454 58.62687 -11.29386 -24.5156 11.3278 -79.39081 -3.42377 4.15419 12.79704 6.91821 7.805 -22.83492 -13.79749 -1.84208 -14.62469 -11.09688 7.44429 20.4621 -2.30431 -2.87191 3.78272 8.17718
-1.52341 0.93417 -0.48825 151.77593 0 -5.69873 -8.13011 10.20892 -7.29177 -62.61545 16.67063 27.8695 88.91936 -54.67909 47.77727 56.37657 81.49432 -0.89496 -2.93918 57.6866 -11.48278 -30.68327 12.05514 -79.10408 -3.53129 3.42036 11.96439 7.06636 7.21726 -21.88686 -13.65059 -1.88662 -14.53317 -10.61704 8.11816 20.02339 -3.32787 -2.61845 3.80493 7.9997
-1.52467 0.9347 -0.49459 152.94611 0 -5.83702 -8.5568 11.32607 -8.04927 -62.45 17.14788 28.94301 88.87898 -55.87463 48.69744 52.12759 80.41355 -1.02689 -2.32184 56.64607 -11.37067 -38.14461 13.09211 -78.88412 -3.65139 2.60583 10.82704 7.11452 7.05262 -20.52069 -13.49281 -1.95402 -14.22433 -9.88413 8.90583 19.33353 -4.7602 -2.277 3.84774 7.84467
-1.5258 0.93514 -0.50082 153.99434 0 -5.96057 -8.9613 12.35381 -8.73946 -62.38573 17.66294 30.04924 89.36695 -57.12624 50.20033 47.88064 80.22308 -1.45844 -1.62039 55.67486 -11.4031 -44.83075 13.97776 -78.65092 -3.76364 1.84874 9.83942 7.20281 6.64371 -19.35919 -13.34234 -2.01004 -14.02157 -9.24139 9.62781 18.71998 -6.03596 -1.9884 3.88194 7.69853
